<?xml version="1.0" encoding="utf-8" standalone="yes"?>
<!DOCTYPE svg PUBLIC "-//W3C//DTD SVG 1.1//EN" "http://www.w3.org/Graphics/SVG/1.1/DTD/svg11.dtd">
<svg width="1010" height="459" viewBox="0 0 1010 459" style="fill:none;stroke:none;fill-rule:evenodd;clip-rule:evenodd;stroke-linecap:round;stroke-linejoin:round;stroke-miterlimit:1.5;" version="1.1" xmlns="http://www.w3.org/2000/svg" xmlns:xlink="http://www.w3.org/1999/xlink"><style class="text-font-style fontImports" data-font-family="Roboto">@import url('https://fonts.googleapis.com/css2?family=Roboto:wght@400;700&amp;display=block');</style><rect id="" x="0" y="0" width="1010" height="458" style="fill: #2c2c2c;"></rect><g id="items" style="isolation: isolate"><g id="blend" style="mix-blend-mode: normal"><g id="g-root-tf_9258dr5b2olc-fill" data-item-order="-459648" transform="translate(-9, -9)"><g id="tf_9258dr5b2olc-fill" stroke="none" fill="#2c2c2c"><g><path d="M 10 10L 1018 10L 1018 466L 10 466Z"></path></g></g></g><g id="g-root-ro_91ienj5bcikq-fill" data-item-order="-20088" transform="translate(603, 123.00006103515625)"><g id="ro_91ienj5bcikq-fill" stroke="none" fill="#60436d"><g><path d="M 22 10L 370 10C 370 10 382 10 382 22L 382 52C 382 52 382 64 370 64L 22 64C 22 64 10 64 10 52L 10 22C 10 22 10 10 22 10"></path></g></g></g><g id="g-root-ro_m9ua3z5b8c90-fill" data-item-order="-19800" transform="translate(423, 186.00006103515625)"><g id="ro_m9ua3z5b8c90-fill" stroke="none" fill="#545454"><g><path d="M 34 10L 118 10C 118 10 142 10 142 34L 142 136C 142 136 142 160 118 160L 34 160C 34 160 10 160 10 136L 10 34C 10 34 10 10 34 10"></path></g></g></g><g id="g-root-ro_dhyncf5bkxla-fill" data-item-order="-19440" transform="translate(15, 123.00006103515625)"><g id="ro_dhyncf5bkxla-fill" stroke="none" fill="#68403f"><g><path d="M 22 10L 358 10C 358 10 370 10 370 22L 370 52C 370 52 370 64 358 64L 22 64C 22 64 10 64 10 52L 10 22C 10 22 10 10 22 10"></path></g></g></g><g id="g-root-ro_4g2t2n5bgp34-fill" data-item-order="-12960" transform="translate(603, 273.00006103515625)"><g id="ro_4g2t2n5bgp34-fill" stroke="none" fill="#54502f"><g><path d="M 22 10L 238 10C 238 10 250 10 250 22L 250 52C 250 52 250 64 238 64L 22 64C 22 64 10 64 10 52L 10 22C 10 22 10 10 22 10"></path></g></g></g><g id="g-root-ro_8yedv35b2ps6-fill" data-item-order="-11016" transform="translate(171, 273.00006103515625)"><g id="ro_8yedv35b2ps6-fill" stroke="none" fill="#4b533a"><g><path d="M 22 10L 202 10C 202 10 214 10 214 22L 214 52C 214 52 214 64 202 64L 22 64C 22 64 10 64 10 52L 10 22C 10 22 10 10 22 10"></path></g></g></g><g id="g-root-cu_1uooejz5b2o07-fill" data-item-order="0" transform="translate(375, 150.00006103515625)"></g><g id="g-root-tx_userinte_1hbcdrj5bb5e5-fill" data-item-order="0" transform="translate(651, 375.00006103515625)"><g id="tx_userinte_1hbcdrj5bb5e5-fill" stroke="none" fill="#f4f4f4"><g><text style="font: 20px Roboto, sans-serif; white-space: pre;" font-size="20px" font-family="Roboto, sans-serif"><tspan x="17.57" y="34" dominant-baseline="ideographic">User Interaction</tspan></text></g></g></g><g id="g-root-cu_599yn5b2n7p-fill" data-item-order="0" transform="translate(627, 327.00006103515625)"></g><g id="g-root-tx_document_1cu9xgv5bb408-fill" data-item-order="0" transform="translate(147, 189.00006103515625)"><g id="tx_document_1cu9xgv5bb408-fill" stroke="none" fill="#f4f4f4"><g><text style="font: 20px Roboto, sans-serif; white-space: pre;" font-size="20px" font-family="Roboto, sans-serif"><tspan x="13.2" y="34" dominant-baseline="ideographic">Document Retrieval</tspan></text></g></g></g><g id="g-root-cu_zmkcrz5b2osr-fill" data-item-order="0" transform="translate(333, 177.00006103515625)"></g><g id="g-root-cu_hvwtdb5b2o06-fill" data-item-order="0" transform="translate(333, 177.00006103515625)"></g><g id="g-root-cu_1uqjttb5b2nsw-fill" data-item-order="0" transform="translate(627, 327.00006103515625)"></g><g id="g-root-cu_dg3b8v5b2osg-fill" data-item-order="0" transform="translate(627, 177.00006103515625)"></g><g id="g-root-cu_4kgazz5b2pl7-fill" data-item-order="0" transform="translate(627, 177.00006103515625)"></g><g id="g-root-tx_chunksiz_m7zdtb5bb40a-fill" data-item-order="0" transform="translate(651, 189.00006103515625)"><g id="tx_chunksiz_m7zdtb5bb40a-fill" stroke="none" fill="#f4f4f4"><g><text style="font: 20px Roboto, sans-serif; white-space: pre;" font-size="20px" font-family="Roboto, sans-serif"><tspan x="15.68" y="34" dominant-baseline="ideographic">Chunk Sizes</tspan></text></g></g></g><g id="g-root-tx_language_zjfw6n5bb2fd-fill" data-item-order="0" transform="translate(123, 225.00006103515625)"><g id="tx_language_zjfw6n5bb2fd-fill" stroke="none" fill="#f4f4f4"><g><text style="font: 20px Roboto, sans-serif; white-space: pre;" font-size="20px" font-family="Roboto, sans-serif"><tspan x="17.18" y="34" dominant-baseline="ideographic">Language Generation</tspan></text></g></g></g><g id="g-root-tx_overlapt_8x5cj35bb2ff-fill" data-item-order="0" transform="translate(651, 225.00006103515625)"><g id="tx_overlapt_8x5cj35bb2ff-fill" stroke="none" fill="#f4f4f4"><g><text style="font: 20px Roboto, sans-serif; white-space: pre;" font-size="20px" font-family="Roboto, sans-serif"><tspan x="15.77" y="34" dominant-baseline="ideographic">Overlap Tuning</tspan></text></g></g></g><g id="g-root-tx_webinter_1umsw4v5bb3t8-fill" data-item-order="0" transform="translate(651, 339.00006103515625)"><g id="tx_webinter_1umsw4v5bb3t8-fill" stroke="none" fill="#f4f4f4"><g><text style="font: 20px Roboto, sans-serif; white-space: pre;" font-size="20px" font-family="Roboto, sans-serif"><tspan x="14.14" y="34" dominant-baseline="ideographic">Web Interface</tspan></text></g></g></g><g id="g-root-tx_moduleim_de7str5bb3tb-fill" data-item-order="0" transform="translate(183, 375.00006103515625)"><g id="tx_moduleim_de7str5bb3tb-fill" stroke="none" fill="#f4f4f4"><g><text style="font: 20px Roboto, sans-serif; white-space: pre;" font-size="20px" font-family="Roboto, sans-serif"><tspan x="16.48" y="34" dominant-baseline="ideographic">Module Import</tspan></text></g></g></g><g id="g-root-cu_18i7d0v5b2o00-fill" data-item-order="0" transform="translate(375, 286.00006103515625)"></g><g id="g-root-cu_1cy0v5b5b2n7p-fill" data-item-order="0" transform="translate(555, 286.00006103515625)"></g><g id="g-root-tx_chatbots_1449a5r5b2nt3-fill" data-item-order="0" transform="translate(249, 39)"><g id="tx_chatbots_1449a5r5b2nt3-fill" stroke="none" fill="#f4f4f4"><g><text style="font: 25px Roboto, sans-serif; white-space: pre;" font-size="25px" font-family="Roboto, sans-serif"><tspan x="17.49" y="42.6" dominant-baseline="ideographic">Chatbot System Features and Components</tspan></text></g></g></g><g id="g-root-cu_1q8uwfj5b2osi-fill" data-item-order="0" transform="translate(555, 150.00006103515625)"></g><g id="g-root-tx_qalogic_qp1u3z5bb5e6-fill" data-item-order="0" transform="translate(231, 339.00006103515625)"><g id="tx_qalogic_qp1u3z5bb5e6-fill" stroke="none" fill="#f4f4f4"><g><text style="font: 20px Roboto, sans-serif; white-space: pre;" font-size="20px" font-family="Roboto, sans-serif"><tspan x="17.74" y="34" dominant-baseline="ideographic">QA Logic</tspan></text></g></g></g><g id="g-root-cu_1hf3bfz5b2pdu-fill" data-item-order="0" transform="translate(333, 327.00006103515625)"></g><g id="g-root-cu_18k2sa75b2n0t-fill" data-item-order="0" transform="translate(333, 327.00006103515625)"></g><g id="g-root-tx_customiz_znsyb35bciko-fill" data-item-order="1000000000" transform="translate(651, 138.00006103515625)"><g id="tx_customiz_znsyb35bciko-fill" stroke="none" fill="#cb68f9"><g><text style="font: 20px Roboto, sans-serif; white-space: pre;" font-size="20px" font-family="Roboto, sans-serif"><tspan x="12.46" y="34" dominant-baseline="ideographic">Customizable Document Chunking</tspan></text></g></g></g><g id="g-root-styl_mcyx0v5bcgzt-fill" data-item-order="1000000000" transform="translate(615, 135.00006103515625)"></g><g id="g-root-cog_1414alr5b89vv-fill" data-item-order="1000000000" transform="translate(465, 210.00006103515625)"></g><g id="g-root-spar_qssomn5bkz65-fill" data-item-order="1000000000" transform="translate(333, 135.00006103515625)"></g><g id="g-root-tx_chatbots_1hbybvz5b8bgq-fill" data-item-order="1000000000" transform="translate(447, 264.00006103515625)"><g id="tx_chatbots_1hbybvz5b8bgq-fill" stroke="none" fill="#b7b7b7"><g><text style="font: 20px Roboto, sans-serif; white-space: pre;" font-size="20px" font-family="Roboto, sans-serif"><tspan x="14.2" y="34" dominant-baseline="ideographic">Chatbot </tspan><tspan x="16.35" y="58" dominant-baseline="ideographic">System</tspan></text></g></g></g><g id="g-root-modu_m9uw8f5b2o79-fill" data-item-order="1000000000" transform="translate(333, 285.00006103515625)"></g><g id="g-root-tx_retrieva_1hf38a75bkz64-fill" data-item-order="1000000000" transform="translate(27, 138.00006103515625)"><g id="tx_retrieva_1hf38a75bkz64-fill" stroke="none" fill="#fb6762"><g><text style="font: 20px Roboto, sans-serif; white-space: pre;" font-size="20px" font-family="Roboto, sans-serif"><tspan x="16.41" y="34" dominant-baseline="ideographic">Retrieval-Augmented Generation</tspan></text></g></g></g><g id="g-root-tx_modulard_zkoxin5b2ps4-fill" data-item-order="1000000000" transform="translate(183, 288.00006103515625)"><g id="tx_modulard_zkoxin5b2ps4-fill" stroke="none" fill="#a6da37"><g><text style="font: 20px Roboto, sans-serif; white-space: pre;" font-size="20px" font-family="Roboto, sans-serif"><tspan x="12.08" y="34" dominant-baseline="ideographic">Modular Design</tspan></text></g></g></g><g id="g-root-filt_mgpxv35bfbbb-fill" data-item-order="1000000000" transform="translate(615, 285.00006103515625)"></g><g id="g-root-tx_streamli_zrjz5b5bfcw6-fill" data-item-order="1000000000" transform="translate(651, 288.00006103515625)"><g id="tx_streamli_zrjz5b5bfcw6-fill" stroke="none" fill="#ffe711"><g><text style="font: 20px Roboto, sans-serif; white-space: pre;" font-size="20px" font-family="Roboto, sans-serif"><tspan x="17.71" y="34" dominant-baseline="ideographic">Streamlit Frontend</tspan></text></g></g></g><g id="g-root-tf_9258dr5b2olc-stroke" data-item-order="-459648" transform="translate(-9, -9)"></g><g id="g-root-ro_91ienj5bcikq-stroke" data-item-order="-20088" transform="translate(603, 123.00006103515625)"><g id="ro_91ienj5bcikq-stroke" fill="none" stroke-linecap="round" stroke-linejoin="round" stroke-miterlimit="4" stroke="#cb68f9" stroke-width="2"><g><path d="M 22 10L 370 10C 370 10 382 10 382 22L 382 52C 382 52 382 64 370 64L 22 64C 22 64 10 64 10 52L 10 22C 10 22 10 10 22 10"></path></g></g></g><g id="g-root-ro_m9ua3z5b8c90-stroke" data-item-order="-19800" transform="translate(423, 186.00006103515625)"><g id="ro_m9ua3z5b8c90-stroke" fill="none" stroke-linecap="round" stroke-linejoin="round" stroke-miterlimit="4" stroke="#f4f4f4" stroke-width="2"><g><path d="M 34 10L 118 10C 118 10 142 10 142 34L 142 136C 142 136 142 160 118 160L 34 160C 34 160 10 160 10 136L 10 34C 10 34 10 10 34 10"></path></g></g></g><g id="g-root-ro_dhyncf5bkxla-stroke" data-item-order="-19440" transform="translate(15, 123.00006103515625)"><g id="ro_dhyncf5bkxla-stroke" fill="none" stroke-linecap="round" stroke-linejoin="round" stroke-miterlimit="4" stroke="#fb6762" stroke-width="2"><g><path d="M 22 10L 358 10C 358 10 370 10 370 22L 370 52C 370 52 370 64 358 64L 22 64C 22 64 10 64 10 52L 10 22C 10 22 10 10 22 10"></path></g></g></g><g id="g-root-ro_4g2t2n5bgp34-stroke" data-item-order="-12960" transform="translate(603, 273.00006103515625)"><g id="ro_4g2t2n5bgp34-stroke" fill="none" stroke-linecap="round" stroke-linejoin="round" stroke-miterlimit="4" stroke="#ffe711" stroke-width="2"><g><path d="M 22 10L 238 10C 238 10 250 10 250 22L 250 52C 250 52 250 64 238 64L 22 64C 22 64 10 64 10 52L 10 22C 10 22 10 10 22 10"></path></g></g></g><g id="g-root-ro_8yedv35b2ps6-stroke" data-item-order="-11016" transform="translate(171, 273.00006103515625)"><g id="ro_8yedv35b2ps6-stroke" fill="none" stroke-linecap="round" stroke-linejoin="round" stroke-miterlimit="4" stroke="#a6da37" stroke-width="2"><g><path d="M 22 10L 202 10C 202 10 214 10 214 22L 214 52C 214 52 214 64 202 64L 22 64C 22 64 10 64 10 52L 10 22C 10 22 10 10 22 10"></path></g></g></g><g id="g-root-cu_1uooejz5b2o07-stroke" data-item-order="0" transform="translate(375, 150.00006103515625)"><g id="cu_1uooejz5b2o07-stroke" fill="none" stroke-linecap="round" stroke-linejoin="round" stroke-miterlimit="4" stroke="#b7b7b7" stroke-width="2" stroke-dasharray="5.0, 7.0"><g><path d="M 58 96L 55 96L 54.9 96C 43.357245 95.999996 33.999997 86.642747 33.999997 75.099997L 34 75L 34 30.9C 33.999998 19.357248 24.64275 10 13.1 10L 13 10L 10 10"></path></g></g></g><g id="g-root-tx_userinte_1hbcdrj5bb5e5-stroke" data-item-order="0" transform="translate(651, 375.00006103515625)"></g><g id="g-root-cu_599yn5b2n7p-stroke" data-item-order="0" transform="translate(627, 327.00006103515625)"><g id="cu_599yn5b2n7p-stroke" fill="none" stroke-linecap="round" stroke-linejoin="round" stroke-miterlimit="4" stroke="#b7b7b7" stroke-width="2" stroke-dasharray="5.0, 7.0"><g><path d="M 10 10L 10 22L 10 34L 19 34L 28 34"></path></g></g></g><g id="g-root-tx_document_1cu9xgv5bb408-stroke" data-item-order="0" transform="translate(147, 189.00006103515625)"></g><g id="g-root-cu_zmkcrz5b2osr-stroke" data-item-order="0" transform="translate(333, 177.00006103515625)"><g id="cu_zmkcrz5b2osr-stroke" fill="none" stroke-linecap="round" stroke-linejoin="round" stroke-miterlimit="4" stroke="#b7b7b7" stroke-width="2" stroke-dasharray="5.0, 7.0"><g><path d="M 28 10L 28 22L 28 34L 19 34L 10 34"></path></g></g></g><g id="g-root-cu_hvwtdb5b2o06-stroke" data-item-order="0" transform="translate(333, 177.00006103515625)"><g id="cu_hvwtdb5b2o06-stroke" fill="none" stroke-linecap="round" stroke-linejoin="round" stroke-miterlimit="4" stroke="#b7b7b7" stroke-width="2" stroke-dasharray="5.0, 7.0"><g><path d="M 28 10L 28 17.5L 28 58C 27.999999 64.627415 22.627416 69.999998 16 69.999998L 15.9 70L 10 70"></path></g></g></g><g id="g-root-cu_1uqjttb5b2nsw-stroke" data-item-order="0" transform="translate(627, 327.00006103515625)"><g id="cu_1uqjttb5b2nsw-stroke" fill="none" stroke-linecap="round" stroke-linejoin="round" stroke-miterlimit="4" stroke="#b7b7b7" stroke-width="2" stroke-dasharray="5.0, 7.0"><g><path d="M 10 10L 10 17.5L 10 58C 10.000002 64.627417 15.372585 70 22.000002 69.999999L 22.1 70L 28 70"></path></g></g></g><g id="g-root-cu_dg3b8v5b2osg-stroke" data-item-order="0" transform="translate(627, 177.00006103515625)"><g id="cu_dg3b8v5b2osg-stroke" fill="none" stroke-linecap="round" stroke-linejoin="round" stroke-miterlimit="4" stroke="#b7b7b7" stroke-width="2" stroke-dasharray="5.0, 7.0"><g><path d="M 10 10L 10 22L 10 34L 19 34L 28 34"></path></g></g></g><g id="g-root-cu_4kgazz5b2pl7-stroke" data-item-order="0" transform="translate(627, 177.00006103515625)"><g id="cu_4kgazz5b2pl7-stroke" fill="none" stroke-linecap="round" stroke-linejoin="round" stroke-miterlimit="4" stroke="#b7b7b7" stroke-width="2" stroke-dasharray="5.0, 7.0"><g><path d="M 10 10L 10 17.5L 10 58C 10.000002 64.627417 15.372585 70 22.000002 69.999999L 22.1 70L 28 70"></path></g></g></g><g id="g-root-tx_chunksiz_m7zdtb5bb40a-stroke" data-item-order="0" transform="translate(651, 189.00006103515625)"></g><g id="g-root-tx_language_zjfw6n5bb2fd-stroke" data-item-order="0" transform="translate(123, 225.00006103515625)"></g><g id="g-root-tx_overlapt_8x5cj35bb2ff-stroke" data-item-order="0" transform="translate(651, 225.00006103515625)"></g><g id="g-root-tx_webinter_1umsw4v5bb3t8-stroke" data-item-order="0" transform="translate(651, 339.00006103515625)"></g><g id="g-root-tx_moduleim_de7str5bb3tb-stroke" data-item-order="0" transform="translate(183, 375.00006103515625)"></g><g id="g-root-cu_18i7d0v5b2o00-stroke" data-item-order="0" transform="translate(375, 286.00006103515625)"><g id="cu_18i7d0v5b2o00-stroke" fill="none" stroke-linecap="round" stroke-linejoin="round" stroke-miterlimit="4" stroke="#b7b7b7" stroke-width="2" stroke-dasharray="5.0, 7.0"><g><path d="M 58 10L 55 10L 54.9 10C 51.522851 10.003929 47.800585 10.613027 43.900001 11.799999C 41.565213 12.503613 38.063122 14.343095 34 17.000001C 29.936878 19.656907 26.434787 21.496389 24.1 22.200001C 20.199417 23.386972 16.477151 23.99607 13.100001 24L 13 24L 10 24"></path></g></g></g><g id="g-root-cu_1cy0v5b5b2n7p-stroke" data-item-order="0" transform="translate(555, 286.00006103515625)"><g id="cu_1cy0v5b5b2n7p-stroke" fill="none" stroke-linecap="round" stroke-linejoin="round" stroke-miterlimit="4" stroke="#b7b7b7" stroke-width="2" stroke-dasharray="5.0, 7.0"><g><path d="M 10 10L 13 10L 13.1 10C 16.47715 10.00393 20.199416 10.613028 24.1 11.8C 26.434787 12.503612 29.936878 14.343094 34 16.999999C 38.063122 19.656905 41.565214 21.496387 43.900001 22.199999C 47.800584 23.386973 51.52285 23.996071 54.900001 24.000001L 55 24L 58 24"></path></g></g></g><g id="g-root-tx_chatbots_1449a5r5b2nt3-stroke" data-item-order="0" transform="translate(249, 39)"></g><g id="g-root-cu_1q8uwfj5b2osi-stroke" data-item-order="0" transform="translate(555, 150.00006103515625)"><g id="cu_1q8uwfj5b2osi-stroke" fill="none" stroke-linecap="round" stroke-linejoin="round" stroke-miterlimit="4" stroke="#b7b7b7" stroke-width="2" stroke-dasharray="5.0, 7.0"><g><path d="M 10 96L 13 96L 13.1 96C 24.642748 96.000003 33.999998 86.642755 33.999998 75.100003L 34 75L 34 30.9C 33.999999 19.357249 43.357248 10.000001 54.899999 10.000002L 55 10L 58 10"></path></g></g></g><g id="g-root-tx_qalogic_qp1u3z5bb5e6-stroke" data-item-order="0" transform="translate(231, 339.00006103515625)"></g><g id="g-root-cu_1hf3bfz5b2pdu-stroke" data-item-order="0" transform="translate(333, 327.00006103515625)"><g id="cu_1hf3bfz5b2pdu-stroke" fill="none" stroke-linecap="round" stroke-linejoin="round" stroke-miterlimit="4" stroke="#b7b7b7" stroke-width="2" stroke-dasharray="5.0, 7.0"><g><path d="M 28 10L 28 22L 28 34L 19 34L 10 34"></path></g></g></g><g id="g-root-cu_18k2sa75b2n0t-stroke" data-item-order="0" transform="translate(333, 327.00006103515625)"><g id="cu_18k2sa75b2n0t-stroke" fill="none" stroke-linecap="round" stroke-linejoin="round" stroke-miterlimit="4" stroke="#b7b7b7" stroke-width="2" stroke-dasharray="5.0, 7.0"><g><path d="M 28 10L 28 17.5L 28 58C 27.999999 64.627415 22.627416 69.999998 16 69.999998L 15.9 70L 10 70"></path></g></g></g><g id="g-root-tx_customiz_znsyb35bciko-stroke" data-item-order="1000000000" transform="translate(651, 138.00006103515625)"></g><g id="g-root-styl_mcyx0v5bcgzt-stroke" data-item-order="1000000000" transform="translate(615, 135.00006103515625)"><g id="styl_mcyx0v5bcgzt-stroke" fill="none" stroke-linecap="round" stroke-linejoin="round" stroke-miterlimit="4" stroke="#cb68f9" stroke-width="2"><g><path d="M 25 11.071428L 25 38.92857M 19.642857 38.92857L 30.357141 38.92857M 13.214286 16.428572L 13.214286 13.214286C 13.214286 12.030818 14.173676 11.071428 15.357142 11.071428L 34.642857 11.071428C 35.826324 11.071428 36.785713 12.030818 36.785713 13.214286L 36.785713 16.428572"></path></g></g></g><g id="g-root-cog_1414alr5b89vv-stroke" data-item-order="1000000000" transform="translate(465, 210.00006103515625)"><g id="cog_1414alr5b89vv-stroke" fill="none" stroke-linecap="round" stroke-linejoin="round" stroke-miterlimit="4" stroke="#b7b7b7" stroke-width="2"><g><path d="M 26.799999 33.489998C 26.800001 29.51355 30.02355 26.290001 34 26.290001C 37.976448 26.290001 41.200001 29.51355 41.200001 33.489998M 18.939999 40.779999L 18.916 40.779999C 14.896133 41.675079 12.037029 45.241688 12.038 49.360001L 12.038 51.098C 12.037469 51.874718 12.345783 52.619774 12.895005 53.168995C 13.444227 53.71822 14.189283 54.026531 14.966 54.026001L 22.285999 54.026001C 23.90387 54.027103 25.216 52.71587 25.216 51.098L 25.216 51.098C 25.216 49.480911 26.526911 48.169998 28.143999 48.169998L 39.856003 48.169998C 41.473091 48.169998 42.784 49.480911 42.784 51.098L 42.784 51.098C 42.784 52.71587 44.09613 54.027103 45.714001 54.026001L 53.034 54.026001C 53.810719 54.026531 54.555775 53.71822 55.104996 53.168995C 55.654217 52.619774 55.962532 51.874718 55.962002 51.098L 55.962002 49.360001C 55.961098 45.243187 53.102406 41.678757 49.084 40.784L 49.060001 40.784C 39.112526 38.857666 28.887981 38.856308 18.939999 40.779999ZM 53.098 37.515999C 53.376308 36.192726 53.517056 34.844223 53.517998 33.491997C 53.517994 32.698425 53.469234 31.905596 53.371998 31.118C 53.261425 30.164185 52.494694 29.420027 51.537998 29.337999L 48.722 29.108C 48.425602 28.090763 48.023403 27.107391 47.521999 26.174L 49.344002 24.028C 49.949627 23.333969 49.99284 22.312708 49.448002 21.57C 48.428928 20.251928 47.246071 19.069071 45.928001 18.049999C 45.185295 17.504196 44.16296 17.548283 43.470001 18.156L 41.323997 19.976C 40.390358 19.476616 39.40786 19.074503 38.391998 18.776001L 38.16 15.962C 38.078125 15.004873 37.334133 14.237475 36.380001 14.126C 34.804501 13.933921 33.211502 13.933921 31.636002 14.126C 30.68187 14.237475 29.937878 15.004873 29.856001 15.962L 29.615999 18.768C 28.60014 19.066504 27.617645 19.468616 26.684 19.968L 24.538 18.147999C 23.843124 17.542719 22.820858 17.501961 22.08 18.049999C 20.761929 19.069071 19.579071 20.251928 18.560001 21.57C 18.015163 22.312708 18.058372 23.333969 18.664001 24.028L 20.486 26.174C 19.984596 27.107391 19.582399 28.090763 19.285999 29.108L 16.469999 29.337999C 15.513308 29.420027 14.746573 30.164185 14.636 31.118C 14.538763 31.905596 14.490005 32.698425 14.49 33.491997C 14.490943 34.844223 14.631691 36.192726 14.91 37.515999"></path></g></g></g><g id="g-root-spar_qssomn5bkz65-stroke" data-item-order="1000000000" transform="translate(333, 135.00006103515625)"><g id="spar_qssomn5bkz65-stroke" fill="none" stroke-linecap="round" stroke-linejoin="round" stroke-miterlimit="4" stroke="#fb6762" stroke-width="2"><g><path d="M 28.085999 16.861313C 30.623751 16.351137 32.666874 14.283088 33.177876 11.679688C 33.688873 14.283088 35.731499 16.351137 38.269249 16.861313M 38.269249 16.864275C 35.731499 17.374437 33.688377 19.442499 33.177376 22.0459C 32.666374 19.442499 30.623751 17.374451 28.085999 16.864275M 11.730963 20.151363L 24.633749 20.151363M 11.730963 26.205999L 37.689251 26.205999M 11.730963 32.265625L 37.689251 32.265625M 11.730963 38.320251L 37.689251 38.320251"></path></g></g></g><g id="g-root-tx_chatbots_1hbybvz5b8bgq-stroke" data-item-order="1000000000" transform="translate(447, 264.00006103515625)"></g><g id="g-root-modu_m9uw8f5b2o79-stroke" data-item-order="1000000000" transform="translate(333, 285.00006103515625)"><g id="modu_m9uw8f5b2o79-stroke" fill="none" stroke-linecap="round" stroke-linejoin="round" stroke-miterlimit="4" stroke="#a6da37" stroke-width="2"><g><path d="M 38.4375 15.3125C 39.003998 15.458458 39.393501 15.977792 39.375 16.5625L 39.375 33.4375C 39.376389 33.974895 39.034142 34.453033 38.525002 34.625L 25.4125 39.3125C 25.145424 39.405865 24.854576 39.405865 24.5875 39.3125L 11.45 34.637497C 10.955066 34.458565 10.625224 33.988789 10.625 33.462502L 10.625 16.525C 10.6065 15.940292 10.996 15.420958 11.5625 15.275L 24.6875 10.6625C 24.892851 10.612661 25.107147 10.612661 25.312498 10.6625ZM 25 20.5875L 25 39.375M 39.037498 15.675L 25 20.5875L 10.9625 15.675"></path></g></g></g><g id="g-root-tx_retrieva_1hf38a75bkz64-stroke" data-item-order="1000000000" transform="translate(27, 138.00006103515625)"></g><g id="g-root-tx_modulard_zkoxin5b2ps4-stroke" data-item-order="1000000000" transform="translate(183, 288.00006103515625)"></g><g id="g-root-filt_mgpxv35bfbbb-stroke" data-item-order="1000000000" transform="translate(615, 285.00006103515625)"><g id="filt_mgpxv35bfbbb-stroke" fill="none" stroke-linecap="round" stroke-linejoin="round" stroke-miterlimit="4" stroke="#ffe711" stroke-width="2"><g><path d="M 10 10M 28.106001 26.5625L 38.480999 13.812488C 38.856003 13.437488 38.856003 12.812512 38.605999 12.312512C 38.355999 11.812512 37.855999 11.5625 37.355999 11.5625L 12.606012 11.5625C 12.106012 11.5625 11.606012 11.812512 11.356012 12.312512C 11.106019 12.812512 11.231027 13.312488 11.481025 13.812488L 21.856037 26.5625M 28.106001 26.5625L 28.106001 35.3125L 21.856037 38.4375L 21.856037 26.5625M 33.671875 19.6875L 16.231037 19.6875"></path></g></g></g><g id="g-root-tx_streamli_zrjz5b5bfcw6-stroke" data-item-order="1000000000" transform="translate(651, 288.00006103515625)"></g></g></g></svg>